<svg width="24" height="24" xmlns="http://www.w3.org/2000/svg">
 <g id="Layer_1">
  <title>Layer 1</title>
  <g stroke="null" id="svg_1">
   <path stroke="null" id="svg_2" d="m21,5.57142l-18,0a1,1.28572 0 0 1 0,-2.57142l18,0a1,1.28572 0 0 1 0,2.57142zm0,5.14286l-18,0a1,1.28572 0 0 1 0,-2.57142l18,0a1,1.28572 0 0 1 0,2.57142zm0,5.14286l-18,0a1,1.28572 0 0 1 0,-2.57142l18,0a1,1.28572 0 0 1 0,2.57142zm0,5.14286l-18,0a1,1.28572 0 0 1 0,-2.57142l18,0a1,1.28572 0 0 1 0,2.57142z"/>
  </g>
 </g>

</svg>