<svg id="icon-weibo-line" viewBox="0 0 1024 1024"><path d="M861.610667 605.738667c0 143.445333-193.28 274.090667-423.509334 274.090666C226.901333 879.786667 42.666667 776.064 42.666667 620.117333c0-83.072 50.346667-174.378667 138.24-259.754666 120.832-117.162667 265.770667-172.074667 335.274666-104.448 21.248 20.565333 30.848 47.872 30.677334 79.274666 84.266667-24.576 155.733333-17.237333 191.274666 32.085334 19.157333 26.581333 22.698667 58.88 13.909334 94.165333 64.469333 26.026667 109.568 75.52 109.568 144.298667z m-189.44-88.32c-16.469333-17.493333-17.066667-39.253333-8.448-60.16 8.874667-21.674667 9.088-34.645333 5.12-40.106667-11.264-15.701333-65.408-15.488-136.277334 13.269333a87.168 87.168 0 0 1-21.717333 5.973334c-14.677333 1.962667-28.629333 0.042667-41.941333-11.306667-17.877333-15.317333-20.224-36.48-13.738667-56.149333 9.173333-28.586667 7.68-45.909333 1.578667-51.84-7.936-7.68-33.152-8.149333-70.784 6.101333-45.610667 17.28-98.048 52.224-145.664 98.389333C167.466667 492.373333 128 563.968 128 620.117333c0 95.658667 139.776 174.378667 310.101333 174.378667 188.586667 0 338.176-101.12 338.176-188.757333 0-31.488-27.178667-57.130667-71.381333-70.485334-16.810667-4.821333-22.869333-7.296-32.725333-17.792z m300.970666-68.992a42.666667 42.666667 0 0 1-82.602666-21.418667 170.666667 170.666667 0 0 0-200.234667-210.090667 42.666667 42.666667 0 1 1-17.365333-83.541333 256 256 0 0 1 300.202666 315.050667z"></path></svg>