<svg id="icon-zhihu-line" viewBox="0 0 1024 1024"><path d="M526.677333 766.421333l-72.021333 45.824-90.922667-142.933333c-18.773333 59.818667-50.005333 113.706667-91.264 163.2-17.152 20.608-34.986667 39.168-55.509333 58.666667-6.613333 6.272-33.066667 30.592-37.461333 34.986666l-60.330667-60.330666c5.930667-5.930667 33.578667-31.36 39.04-36.522667 18.346667-17.408 33.92-33.706667 48.725333-51.456 54.016-64.768 86.613333-136.96 91.178667-223.189333H128v-85.333334h170.666667V298.666667h-37.034667c-29.397333 54.016-66.474667 94.805333-111.701333 121.898666L106.069333 347.434667c59.52-35.754667 103.466667-111.104 129.621334-228.693334l83.285333 18.517334c-5.973333 27.008-12.928 52.352-20.864 76.074666H490.666667v85.333334H384v170.666666h106.666667v85.333334H391.893333l134.784 211.754666z m163.754667-2.986666L738.048 725.333333H810.666667V298.666667h-170.666667v426.666666h31.402667l19.029333 38.101334zM554.666667 213.333333h341.333333v597.333334h-128l-106.666667 85.333333-42.666666-85.333333H554.666667V213.333333z"></path></svg>