<svg xmlns="http://www.w3.org/2000/svg" xmlns:xlink="http://www.w3.org/1999/xlink" fill="none" version="1.1" width="786.7999877929688" height="572.2999877929688" viewBox="0 0 786.7999877929688 572.2999877929688"><defs><clipPath id="master_svg0_1_0"><rect x="0" y="0" width="786.7999877929688" height="572.2999877929688" rx="0"/></clipPath></defs><g clip-path="url(#master_svg0_1_0)"><g><ellipse cx="739.7000007629395" cy="46.70000076293945" rx="26.700000762939453" ry="26.700000762939453" fill="#F2F2F2" fill-opacity="1"/></g><g><path d="M1.4007,435.9460477929687C9.62408,445.53868779296874,18.4576,454.5996877929688,27.8189,463.0466877929687C28.002,463.21188779296875,28.2364,463.30018779296876,28.483,463.30048779296874L758.315,464.29948779296876C758.563,464.29978779296874,758.804,464.20618779296876,758.988,464.04028779296874C768.347,455.5951877929688,777.178,446.5362877929688,785.399,436.9460477929687C785.953,436.3004477929687,785.5,435.29833579296877,784.65,435.2972547929688L2.15726,434.3027296029687C1.30569,434.30164728296876,0.846476,435.29954179296874,1.4007,435.9460477929687" fill="#3F3D56" fill-opacity="1"/></g><g><path d="M495.3999938964844,341.60000948242185L495.3999938964844,427.2999694824219C495.3999938964844,429.5999694824219,497.19998389648435,431.39996948242185,499.5000038964844,431.39996948242185L626.4999938964844,431.39996948242185C628.7999938964844,431.39996948242185,630.5999938964844,429.5999694824219,630.5999938964844,427.2999694824219L630.5999938964844,341.5999794824219C630.5999938964844,339.2999894824219,628.7999938964844,337.4999694824219,626.4999938964844,337.4999694824219L499.5000038964844,337.4999694824219C497.2999838964844,337.5000000000219,495.3999938964844,339.2999894824219,495.3999938964844,341.60000948242185Z" fill="#3F3D56" fill-opacity="1"/></g><g><path d="M498.3999938964844,342.70001L498.3999938964844,426.3C498.3999938964844,427.5,499.3999938964844,428.5,500.6000038964844,428.5L625.4999938964844,428.5C626.6999938964843,428.5,627.6999938964843,427.5,627.6999938964843,426.3L627.6999938964843,342.70001C627.6999938964843,341.5,626.6999938964843,340.5,625.4999938964844,340.5L500.6000038964844,340.5C499.3999938964844,340.5,498.3999938964844,341.399994,498.3999938964844,342.70001Z" fill="#00B0FF" fill-opacity="1"/></g><g><path d="M492.624889,450.68C493.1248,451.56,493.82469,452,494.52455,452L630.5,452C631.9,452,633,450.3867,633,448.3333C633,448.04,633,447.8934,632.9,447.6L630.8,432.93333C630.6,431.76002,630.001,430.733333,629.201,430.293351C628.9010000000001,430.146676,628.601,430,628.3009999999999,430L496.62418,430C496.32425,430,496.02428,430.146676,495.72435,430.293351C494.9245,430.733333,494.3246,431.76002,494.12462,432.93333L492.0249895,447.6C491.9250316,448.7734,492.124978,449.8,492.624889,450.68Z" fill="#E6E6E6" fill-opacity="1"/></g><g><path d="M627.20001,438.3999938964844L624,438.3999938964844C623.700012,438.3999938964844,623.5,438.19998389648435,623.5,437.8999938964844L623.5,436.3999938964844C623.5,436.1000058964844,623.700012,435.8999938964844,624,435.8999938964844L627.20001,435.8999938964844C627.5,435.8999938964844,627.70001,436.1000058964844,627.70001,436.3999938964844L627.70001,437.8999938964844C627.70001,438.19998389648435,627.50006,438.3999938964844,627.20001,438.3999938964844Z" fill="#3F3D56" fill-opacity="1"/></g><g><path d="M627.0999733789063,434.20001220703125L623.8999633789062,434.20001220703125C623.5999753789063,434.20001220703125,623.3999633789062,434.00000220703123,623.3999633789062,433.70001220703125L623.3999633789062,432.20001220703125C623.3999633789062,431.90002420703127,623.5999753789063,431.70001220703125,623.8999633789062,431.70001220703125L627.0999733789063,431.70001220703125C627.3999633789062,431.70001220703125,627.5999733789063,431.90002420703127,627.5999733789063,432.20001220703125L627.5999733789063,433.70001220703125C627.5999733789063,434.00000220703123,627.4000233789062,434.20001220703125,627.0999733789063,434.20001220703125Z" fill="#3F3D56" fill-opacity="1"/></g><g><path d="M618.7999855859375,434.20001220703125L615.5999755859375,434.20001220703125C615.2999875859375,434.20001220703125,615.0999755859375,434.00000220703123,615.0999755859375,433.70001220703125L615.0999755859375,432.20001220703125C615.0999755859375,431.90002420703127,615.2999875859375,431.70001220703125,615.5999755859375,431.70001220703125L618.7999855859375,431.70001220703125C619.0999755859375,431.70001220703125,619.2999855859375,431.90002420703127,619.2999855859375,432.20001220703125L619.2999855859375,433.70001220703125C619.2999855859375,434.00000220703123,618.9999955859375,434.20001220703125,618.7999855859375,434.20001220703125Z" fill="#3F3D56" fill-opacity="1"/></g><g><path d="M610.4000222070313,434.20001220703125L607.2000122070312,434.20001220703125C606.9000242070313,434.20001220703125,606.7000122070312,434.00000220703123,606.7000122070312,433.70001220703125L606.7000122070312,432.20001220703125C606.7000122070312,431.90002420703127,606.9000242070313,431.70001220703125,607.2000122070312,431.70001220703125L610.4000222070313,431.70001220703125C610.7000122070312,431.70001220703125,610.9000222070313,431.90002420703127,610.9000222070313,432.20001220703125L610.9000222070313,433.70001220703125C610.9000222070313,434.00000220703123,610.7000722070312,434.20001220703125,610.4000222070313,434.20001220703125Z" fill="#3F3D56" fill-opacity="1"/></g><g><path d="M601.9999977929688,434.20001220703125L598.7999877929688,434.20001220703125C598.4999997929688,434.20001220703125,598.2999877929688,434.00000220703123,598.2999877929688,433.70001220703125L598.2999877929688,432.20001220703125C598.2999877929688,431.90002420703127,598.4999997929688,431.70001220703125,598.7999877929688,431.70001220703125L601.9999977929688,431.70001220703125C602.2999877929688,431.70001220703125,602.4999977929688,431.90002420703127,602.4999977929688,432.20001220703125L602.4999977929688,433.70001220703125C602.4999977929688,434.00000220703123,602.3000477929687,434.20001220703125,601.9999977929688,434.20001220703125Z" fill="#3F3D56" fill-opacity="1"/></g><g><path d="M593.5999733789063,434.20001220703125L590.3999633789062,434.20001220703125C590.0999753789063,434.20001220703125,589.8999633789062,434.00000220703123,589.8999633789062,433.70001220703125L589.8999633789062,432.20001220703125C589.8999633789062,431.90002420703127,590.0999753789063,431.70001220703125,590.3999633789062,431.70001220703125L593.5999733789063,431.70001220703125C593.8999633789062,431.70001220703125,594.0999733789063,431.90002420703127,594.0999733789063,432.20001220703125L594.0999733789063,433.70001220703125C594.0999733789063,434.00000220703123,593.9000233789062,434.20001220703125,593.5999733789063,434.20001220703125Z" fill="#3F3D56" fill-opacity="1"/></g><g><path d="M585.29999,434.20001220703125L582,434.20001220703125C581.700012,434.20001220703125,581.5,434.00000220703123,581.5,433.70001220703125L581.5,432.20001220703125C581.5,431.90002420703127,581.700012,431.70001220703125,582,431.70001220703125L585.20001,431.70001220703125C585.5,431.70001220703125,585.70001,431.90002420703127,585.70001,432.20001220703125L585.70001,433.70001220703125C585.70001,434.00000220703123,585.5,434.20001220703125,585.29999,434.20001220703125Z" fill="#3F3D56" fill-opacity="1"/></g><g><path d="M576.9000222070313,434.20001220703125L573.7000122070312,434.20001220703125C573.4000242070313,434.20001220703125,573.2000122070312,434.00000220703123,573.2000122070312,433.70001220703125L573.2000122070312,432.20001220703125C573.2000122070312,431.90002420703127,573.4000242070313,431.70001220703125,573.7000122070312,431.70001220703125L576.9000222070313,431.70001220703125C577.2000122070312,431.70001220703125,577.4000222070313,431.90002420703127,577.4000222070313,432.20001220703125L577.4000222070313,433.70001220703125C577.4000222070313,434.00000220703123,577.2000722070312,434.20001220703125,576.9000222070313,434.20001220703125Z" fill="#3F3D56" fill-opacity="1"/></g><g><path d="M568.4999977929688,434.20001220703125L565.2999877929688,434.20001220703125C564.9999997929688,434.20001220703125,564.7999877929688,434.00000220703123,564.7999877929688,433.70001220703125L564.7999877929688,432.20001220703125C564.7999877929688,431.90002420703127,564.9999997929688,431.70001220703125,565.2999877929688,431.70001220703125L568.4999977929688,431.70001220703125C568.7999877929688,431.70001220703125,568.9999977929688,431.90002420703127,568.9999977929688,432.20001220703125L568.9999977929688,433.70001220703125C568.9999977929688,434.00000220703123,568.8000477929687,434.20001220703125,568.4999977929688,434.20001220703125Z" fill="#3F3D56" fill-opacity="1"/></g><g><path d="M560.0999733789063,434.20001220703125L556.8999633789062,434.20001220703125C556.5999753789063,434.20001220703125,556.3999633789062,434.00000220703123,556.3999633789062,433.70001220703125L556.3999633789062,432.20001220703125C556.3999633789062,431.90002420703127,556.5999753789063,431.70001220703125,556.8999633789062,431.70001220703125L560.0999733789063,431.70001220703125C560.3999633789062,431.70001220703125,560.5999733789063,431.90002420703127,560.5999733789063,432.20001220703125L560.5999733789063,433.70001220703125C560.5999733789063,434.00000220703123,560.4000233789062,434.20001220703125,560.0999733789063,434.20001220703125Z" fill="#3F3D56" fill-opacity="1"/></g><g><path d="M551.7999855859375,434.20001220703125L548.5999755859375,434.20001220703125C548.2999875859375,434.20001220703125,548.0999755859375,434.00000220703123,548.0999755859375,433.70001220703125L548.0999755859375,432.20001220703125C548.0999755859375,431.90002420703127,548.2999875859375,431.70001220703125,548.5999755859375,431.70001220703125L551.7999855859375,431.70001220703125C552.0999755859375,431.70001220703125,552.2999855859375,431.90002420703127,552.2999855859375,432.20001220703125L552.2999855859375,433.70001220703125C552.2000155859375,434.00000220703123,551.9999955859375,434.20001220703125,551.7999855859375,434.20001220703125Z" fill="#3F3D56" fill-opacity="1"/></g><g><path d="M543.4000222070313,434.20001220703125L540.2000122070312,434.20001220703125C539.9000242070313,434.20001220703125,539.7000122070312,434.00000220703123,539.7000122070312,433.70001220703125L539.7000122070312,432.20001220703125C539.7000122070312,431.90002420703127,539.9000242070313,431.70001220703125,540.2000122070312,431.70001220703125L543.4000222070313,431.70001220703125C543.7000122070312,431.70001220703125,543.9000222070313,431.90002420703127,543.9000222070313,432.20001220703125L543.9000222070313,433.70001220703125C543.9000222070313,434.00000220703123,543.5999722070312,434.20001220703125,543.4000222070313,434.20001220703125Z" fill="#3F3D56" fill-opacity="1"/></g><g><path d="M534.9999977929688,434.20001220703125L531.7999877929688,434.20001220703125C531.4999997929688,434.20001220703125,531.2999877929688,434.00000220703123,531.2999877929688,433.70001220703125L531.2999877929688,432.20001220703125C531.2999877929688,431.90002420703127,531.4999997929688,431.70001220703125,531.7999877929688,431.70001220703125L534.9999977929688,431.70001220703125C535.2999877929688,431.70001220703125,535.4999977929688,431.90002420703127,535.4999977929688,432.20001220703125L535.4999977929688,433.70001220703125C535.4999977929688,434.00000220703123,535.3000477929687,434.20001220703125,534.9999977929688,434.20001220703125Z" fill="#3F3D56" fill-opacity="1"/></g><g><path d="M526.5999733789063,434.20001220703125L523.3999633789062,434.20001220703125C523.0999753789063,434.20001220703125,522.8999633789062,434.00000220703123,522.8999633789062,433.70001220703125L522.8999633789062,432.20001220703125C522.8999633789062,431.90002420703127,523.0999753789063,431.70001220703125,523.3999633789062,431.70001220703125L526.5999733789063,431.70001220703125C526.8999633789062,431.70001220703125,527.0999733789063,431.90002420703127,527.0999733789063,432.20001220703125L527.0999733789063,433.70001220703125C527.0999733789063,434.00000220703123,526.9000233789062,434.20001220703125,526.5999733789063,434.20001220703125Z" fill="#3F3D56" fill-opacity="1"/></g><g><path d="M518.20001,434.20001220703125L515,434.20001220703125C514.700012,434.20001220703125,514.5,434.00000220703123,514.5,433.70001220703125L514.5,432.20001220703125C514.5,431.90002420703127,514.700012,431.70001220703125,515,431.70001220703125L518.20001,431.70001220703125C518.5,431.70001220703125,518.70001,431.90002420703127,518.70001,432.20001220703125L518.70001,433.70001220703125C518.70001,434.00000220703123,518.50006,434.20001220703125,518.20001,434.20001220703125Z" fill="#3F3D56" fill-opacity="1"/></g><g><path d="M509.89999168945315,434.20001220703125L506.6999816894531,434.20001220703125C506.39999368945314,434.20001220703125,506.1999816894531,434.00000220703123,506.1999816894531,433.70001220703125L506.1999816894531,432.20001220703125C506.1999816894531,431.90002420703127,506.39999368945314,431.70001220703125,506.6999816894531,431.70001220703125L509.89999168945315,431.70001220703125C510.1999816894531,431.70001220703125,510.39999168945315,431.90002420703127,510.39999168945315,432.20001220703125L510.39999168945315,433.70001220703125C510.39999168945315,434.00000220703123,510.1000016894531,434.20001220703125,509.89999168945315,434.20001220703125Z" fill="#3F3D56" fill-opacity="1"/></g><g><path d="M501.49999779296877,434.20001220703125L498.29998779296875,434.20001220703125C497.99999979296877,434.20001220703125,497.79998779296875,434.00000220703123,497.79998779296875,433.70001220703125L497.79998779296875,432.20001220703125C497.79998779296875,431.90002420703127,497.99999979296877,431.70001220703125,498.29998779296875,431.70001220703125L501.49999779296877,431.70001220703125C501.79998779296875,431.70001220703125,501.99999779296877,431.90002420703127,501.99999779296877,432.20001220703125L501.99999779296877,433.70001220703125C501.99999779296877,434.00000220703123,501.80004779296877,434.20001220703125,501.49999779296877,434.20001220703125Z" fill="#3F3D56" fill-opacity="1"/></g><g><path d="M627.20001,438.3999938964844L624,438.3999938964844C623.700012,438.3999938964844,623.5,438.19998389648435,623.5,437.8999938964844L623.5,436.3999938964844C623.5,436.1000058964844,623.700012,435.8999938964844,624,435.8999938964844L627.20001,435.8999938964844C627.5,435.8999938964844,627.70001,436.1000058964844,627.70001,436.3999938964844L627.70001,437.8999938964844C627.70001,438.19998389648435,627.50006,438.3999938964844,627.20001,438.3999938964844Z" fill="#3F3D56" fill-opacity="1"/></g><g><path d="M618.9000222070313,438.3999938964844L615.7000122070312,438.3999938964844C615.4000242070313,438.3999938964844,615.2000122070312,438.19998389648435,615.2000122070312,437.8999938964844L615.2000122070312,436.3999938964844C615.2000122070312,436.1000058964844,615.4000242070313,435.8999938964844,615.7000122070312,435.8999938964844L618.9000222070313,435.8999938964844C619.2000122070312,435.8999938964844,619.4000222070313,436.1000058964844,619.4000222070313,436.3999938964844L619.4000222070313,437.8999938964844C619.4000222070313,438.19998389648435,619.0999722070312,438.3999938964844,618.9000222070313,438.3999938964844Z" fill="#3F3D56" fill-opacity="1"/></g><g><path d="M610.4999977929688,438.3999938964844L607.2999877929688,438.3999938964844C606.9999997929688,438.3999938964844,606.7999877929688,438.19998389648435,606.7999877929688,437.8999938964844L606.7999877929688,436.3999938964844C606.7999877929688,436.1000058964844,606.9999997929688,435.8999938964844,607.2999877929688,435.8999938964844L610.4999977929688,435.8999938964844C610.7999877929688,435.8999938964844,610.9999977929688,436.1000058964844,610.9999977929688,436.3999938964844L610.9999977929688,437.8999938964844C610.9999977929688,438.19998389648435,610.8000477929687,438.3999938964844,610.4999977929688,438.3999938964844Z" fill="#3F3D56" fill-opacity="1"/></g><g><path d="M602.0999733789063,438.3999938964844L598.8999633789062,438.3999938964844C598.5999753789063,438.3999938964844,598.3999633789062,438.19998389648435,598.3999633789062,437.8999938964844L598.3999633789062,436.3999938964844C598.3999633789062,436.1000058964844,598.5999753789063,435.8999938964844,598.8999633789062,435.8999938964844L602.0999733789063,435.8999938964844C602.3999633789062,435.8999938964844,602.5999733789063,436.1000058964844,602.5999733789063,436.3999938964844L602.5999733789063,437.8999938964844C602.5999733789063,438.19998389648435,602.4000233789062,438.3999938964844,602.0999733789063,438.3999938964844Z" fill="#3F3D56" fill-opacity="1"/></g><g><path d="M593.70001,438.3999938964844L590.5,438.3999938964844C590.200012,438.3999938964844,590,438.19998389648435,590,437.8999938964844L590,436.3999938964844C590,436.1000058964844,590.200012,435.8999938964844,590.5,435.8999938964844L593.70001,435.8999938964844C594,435.8999938964844,594.20001,436.1000058964844,594.20001,436.3999938964844L594.20001,437.8999938964844C594.20001,438.19998389648435,594.00006,438.3999938964844,593.70001,438.3999938964844Z" fill="#3F3D56" fill-opacity="1"/></g><g><path d="M585.4000222070313,438.3999938964844L582.2000122070312,438.3999938964844C581.9000242070313,438.3999938964844,581.7000122070312,438.19998389648435,581.7000122070312,437.8999938964844L581.7000122070312,436.3999938964844C581.7000122070312,436.1000058964844,581.9000242070313,435.8999938964844,582.2000122070312,435.8999938964844L585.4000222070313,435.8999938964844C585.7000122070312,435.8999938964844,585.9000222070313,436.1000058964844,585.9000222070313,436.3999938964844L585.9000222070313,437.8999938964844C585.7999922070312,438.2000138964844,585.5999722070312,438.3999938964844,585.4000222070313,438.3999938964844Z" fill="#3F3D56" fill-opacity="1"/></g><g><path d="M576.9999977929688,438.3999938964844L573.7999877929688,438.3999938964844C573.4999997929688,438.3999938964844,573.2999877929688,438.19998389648435,573.2999877929688,437.8999938964844L573.2999877929688,436.3999938964844C573.2999877929688,436.1000058964844,573.4999997929688,435.8999938964844,573.7999877929688,435.8999938964844L576.9999977929688,435.8999938964844C577.2999877929688,435.8999938964844,577.4999977929688,436.1000058964844,577.4999977929688,436.3999938964844L577.4999977929688,437.8999938964844C577.4999977929688,438.19998389648435,577.3000477929687,438.3999938964844,576.9999977929688,438.3999938964844Z" fill="#3F3D56" fill-opacity="1"/></g><g><path d="M568.5999733789063,438.3999938964844L565.3999633789062,438.3999938964844C565.0999753789063,438.3999938964844,564.8999633789062,438.19998389648435,564.8999633789062,437.8999938964844L564.8999633789062,436.3999938964844C564.8999633789062,436.1000058964844,565.0999753789063,435.8999938964844,565.3999633789062,435.8999938964844L568.5999733789063,435.8999938964844C568.8999633789062,435.8999938964844,569.0999733789063,436.1000058964844,569.0999733789063,436.3999938964844L569.0999733789063,437.8999938964844C569.0999733789063,438.19998389648435,568.9000233789062,438.3999938964844,568.5999733789063,438.3999938964844Z" fill="#3F3D56" fill-opacity="1"/></g><g><path d="M560.20001,438.3999938964844L557,438.3999938964844C556.700012,438.3999938964844,556.5,438.19998389648435,556.5,437.8999938964844L556.5,436.3999938964844C556.5,436.1000058964844,556.700012,435.8999938964844,557,435.8999938964844L560.20001,435.8999938964844C560.5,435.8999938964844,560.70001,436.1000058964844,560.70001,436.3999938964844L560.70001,437.8999938964844C560.70001,438.19998389648435,560.50006,438.3999938964844,560.20001,438.3999938964844Z" fill="#3F3D56" fill-opacity="1"/></g><g><path d="M551.9000222070313,438.3999938964844L548.7000122070312,438.3999938964844C548.4000242070313,438.3999938964844,548.2000122070312,438.19998389648435,548.2000122070312,437.8999938964844L548.2000122070312,436.3999938964844C548.2000122070312,436.1000058964844,548.4000242070313,435.8999938964844,548.7000122070312,435.8999938964844L551.9000222070313,435.8999938964844C552.2000122070312,435.8999938964844,552.4000222070313,436.1000058964844,552.4000222070313,436.3999938964844L552.4000222070313,437.8999938964844C552.2999922070312,438.2000138964844,552.0999722070312,438.3999938964844,551.9000222070313,438.3999938964844Z" fill="#3F3D56" fill-opacity="1"/></g><g><path d="M543.4999977929688,438.3999938964844L540.2999877929688,438.3999938964844C539.9999997929688,438.3999938964844,539.7999877929688,438.19998389648435,539.7999877929688,437.8999938964844L539.7999877929688,436.3999938964844C539.7999877929688,436.1000058964844,539.9999997929688,435.8999938964844,540.2999877929688,435.8999938964844L543.4999977929688,435.8999938964844C543.7999877929688,435.8999938964844,543.9999977929688,436.1000058964844,543.9999977929688,436.3999938964844L543.9999977929688,437.8999938964844C543.9999977929688,438.19998389648435,543.7000077929688,438.3999938964844,543.4999977929688,438.3999938964844Z" fill="#3F3D56" fill-opacity="1"/></g><g><path d="M535.0999733789063,438.3999938964844L531.8999633789062,438.3999938964844C531.5999753789063,438.3999938964844,531.3999633789062,438.19998389648435,531.3999633789062,437.8999938964844L531.3999633789062,436.3999938964844C531.3999633789062,436.1000058964844,531.5999753789063,435.8999938964844,531.8999633789062,435.8999938964844L535.0999733789063,435.8999938964844C535.3999633789062,435.8999938964844,535.5999733789063,436.1000058964844,535.5999733789063,436.3999938964844L535.5999733789063,437.8999938964844C535.5999733789063,438.19998389648435,535.4000233789062,438.3999938964844,535.0999733789063,438.3999938964844Z" fill="#3F3D56" fill-opacity="1"/></g><g><path d="M526.70001,438.3999938964844L523.5,438.3999938964844C523.200012,438.3999938964844,523,438.19998389648435,523,437.8999938964844L523,436.3999938964844C523,436.1000058964844,523.200012,435.8999938964844,523.5,435.8999938964844L526.70001,435.8999938964844C527,435.8999938964844,527.20001,436.1000058964844,527.20001,436.3999938964844L527.20001,437.8999938964844C527.20001,438.19998389648435,527.00006,438.3999938964844,526.70001,438.3999938964844Z" fill="#3F3D56" fill-opacity="1"/></g><g><path d="M518.2999855859375,438.3999938964844L515.0999755859375,438.3999938964844C514.7999875859375,438.3999938964844,514.5999755859375,438.19998389648435,514.5999755859375,437.8999938964844L514.5999755859375,436.3999938964844C514.5999755859375,436.1000058964844,514.7999875859375,435.8999938964844,515.0999755859375,435.8999938964844L518.2999855859375,435.8999938964844C518.5999755859375,435.8999938964844,518.7999855859375,436.1000058964844,518.7999855859375,436.3999938964844L518.7999855859375,437.8999938964844C518.7999855859375,438.19998389648435,518.6000355859375,438.3999938964844,518.2999855859375,438.3999938964844Z" fill="#3F3D56" fill-opacity="1"/></g><g><path d="M509.99999779296877,438.3999938964844L506.79998779296875,438.3999938964844C506.49999979296877,438.3999938964844,506.29998779296875,438.19998389648435,506.29998779296875,437.8999938964844L506.29998779296875,436.3999938964844C506.29998779296875,436.1000058964844,506.49999979296877,435.8999938964844,506.79998779296875,435.8999938964844L509.99999779296877,435.8999938964844C510.29998779296875,435.8999938964844,510.49999779296877,436.1000058964844,510.49999779296877,436.3999938964844L510.49999779296877,437.8999938964844C510.49999779296877,438.19998389648435,510.20000779296873,438.3999938964844,509.99999779296877,438.3999938964844Z" fill="#3F3D56" fill-opacity="1"/></g><g><path d="M501.6000038964844,438.3999938964844L498.3999938964844,438.3999938964844C498.1000058964844,438.3999938964844,497.8999938964844,438.19998389648435,497.8999938964844,437.8999938964844L497.8999938964844,436.3999938964844C497.8999938964844,436.1000058964844,498.1000058964844,435.8999938964844,498.3999938964844,435.8999938964844L501.6000038964844,435.8999938964844C501.8999938964844,435.8999938964844,502.1000038964844,436.1000058964844,502.1000038964844,436.3999938964844L502.1000038964844,437.8999938964844C502.1000038964844,438.19998389648435,501.9000538964844,438.3999938964844,501.6000038964844,438.3999938964844Z" fill="#3F3D56" fill-opacity="1"/></g><g><path d="M579.5672,449L551.432836,449C551.173145,449,551,448.35996,551,447.4L551,442.6C551,441.640039,551.173145,441,551.432836,441L579.5672,441C579.8269,441,580,441.640039,580,442.6L580,447.4C580,448.36006,579.8269,449,579.5672,449Z" fill="#F2F2F2" fill-opacity="1"/></g><g><path d="M517.2000166210937,358.70001220703125L519.9999966210937,358.70001220703125C520.9000266210937,358.70001220703125,521.5999766210938,359.40002420703127,521.5999766210938,360.30002220703125C521.5999766210938,361.20001220703125,520.8999666210938,361.90002220703127,519.9999966210937,361.90002220703127L517.2000166210937,361.90002220703127C516.2999876210938,361.90002220703127,515.6000366210938,361.20001220703125,515.6000366210938,360.30002220703125C515.5999755858937,359.3999942070312,516.2999876210938,358.70001220703125,517.2000166210937,358.70001220703125Z" fill="#FFFFFF" fill-opacity="1"/></g><g><path d="M549.7000166210937,358.70001220703125L552.4999966210937,358.70001220703125C553.4000266210937,358.70001220703125,554.0999766210938,359.40002420703127,554.0999766210938,360.30002220703125C554.0999766210938,361.20001220703125,553.3999666210938,361.90002220703127,552.4999966210937,361.90002220703127L549.7000166210937,361.90002220703127C548.7999876210938,361.90002220703127,548.1000366210938,361.20001220703125,548.1000366210938,360.30002220703125C548.2000122210937,359.3999942070312,548.9000246210937,358.70001220703125,549.7000166210937,358.70001220703125Z" fill="#FFFFFF" fill-opacity="1"/></g><g><path d="M558.900028828125,358.70001220703125L561.700008828125,358.70001220703125C562.600038828125,358.70001220703125,563.299988828125,359.40002420703127,563.299988828125,360.30002220703125C563.299988828125,361.20001220703125,562.599978828125,361.90002220703127,561.700008828125,361.90002220703127L558.900028828125,361.90002220703127C557.999999828125,361.90002220703127,557.300048828125,361.20001220703125,557.300048828125,360.30002220703125C557.400024428125,359.3999942070312,558.099975828125,358.70001220703125,558.900028828125,358.70001220703125Z" fill="#FFFFFF" fill-opacity="1"/></g><g><path d="M526.0000044140625,358.5L543.7000244140625,358.5C544.6000244140625,358.5,545.3000244140625,359.200012,545.3000244140625,360.10001C545.3000244140625,361,544.6000244140625,361.70001,543.7000244140625,361.70001L526.0000044140625,361.70001C525.0999754140626,361.70001,524.4000244140625,361,524.4000244140625,360.10001C524.5000000140625,359.200012,525.2000124140625,358.5,526.0000044140625,358.5Z" fill="#FFFFFF" fill-opacity="1"/></g><g><path d="M569.400028828125,358.5L587.100048828125,358.5C588.000048828125,358.5,588.700048828125,359.200012,588.700048828125,360.10001C588.700048828125,361,588.000048828125,361.70001,587.100048828125,361.70001L569.400028828125,361.70001C568.499999828125,361.70001,567.800048828125,361,567.800048828125,360.10001C567.799987792925,359.200012,568.499999828125,358.5,569.400028828125,358.5Z" fill="#FFFFFF" fill-opacity="1"/></g><g><path d="M525.900028828125,365.79998779296875L528.700008828125,365.79998779296875C529.600038828125,365.79998779296875,530.299988828125,366.49999979296877,530.299988828125,367.39999779296875C530.299988828125,368.29998779296875,529.599978828125,368.99999779296877,528.700008828125,368.99999779296877L525.900028828125,368.99999779296877C524.999999828125,368.99999779296877,524.300048828125,368.29998779296875,524.300048828125,367.39999779296875C524.299987792925,366.49999979296877,524.999999828125,365.79998779296875,525.900028828125,365.79998779296875Z" fill="#FFFFFF" fill-opacity="1"/></g><g><path d="M558.400028828125,365.79998779296875L561.200008828125,365.79998779296875C562.100038828125,365.79998779296875,562.799988828125,366.49999979296877,562.799988828125,367.39999779296875C562.799988828125,368.29998779296875,562.099978828125,368.99999779296877,561.200008828125,368.99999779296877L558.400028828125,368.99999779296877C557.499999828125,368.99999779296877,556.800048828125,368.29998779296875,556.800048828125,367.39999779296875C556.799987792925,366.49999979296877,557.499999828125,365.79998779296875,558.400028828125,365.79998779296875Z" fill="#FFFFFF" fill-opacity="1"/></g><g><path d="M567.59998,365.79998779296875L570.39996,365.79998779296875C571.29999,365.79998779296875,571.99994,366.49999979296877,571.99994,367.39999779296875C571.99994,368.29998779296875,571.29993,368.99999779296877,570.39996,368.99999779296877L567.59998,368.99999779296877C566.699951,368.99999779296877,566,368.29998779296875,566,367.39999779296875C566,366.49999979296877,566.700012,365.79998779296875,567.59998,365.79998779296875Z" fill="#FFFFFF" fill-opacity="1"/></g><g><path d="M534.7000166210937,365.5L552.4000366210937,365.5C553.3000366210938,365.5,554.0000366210937,366.200012,554.0000366210937,367.10001C554.0000366210937,368,553.3000366210938,368.70001,552.4000366210937,368.70001L534.7000166210937,368.70001C533.7999876210938,368.70001,533.1000366210938,368,533.1000366210938,367.10001C533.2000122210937,366.200012,533.7999876210938,365.5,534.7000166210937,365.5Z" fill="#FFFFFF" fill-opacity="1"/></g><g><path d="M578.09998,365.5L595.8,365.5C596.7,365.5,597.4,366.200012,597.4,367.10001C597.4,368,596.7,368.70001,595.8,368.70001L578.09998,368.70001C577.199951,368.70001,576.5,368,576.5,367.10001C576.5,366.200012,577.200012,365.5,578.09998,365.5Z" fill="#FFFFFF" fill-opacity="1"/></g><g><path d="M534.5000044140625,372.79998779296875L537.2999844140625,372.79998779296875C538.2000144140625,372.79998779296875,538.8999644140625,373.49999979296877,538.8999644140625,374.39999779296875C538.8999644140625,375.29998779296875,538.1999544140625,375.99999779296877,537.2999844140625,375.99999779296877L534.5000044140625,375.99999779296877C533.5999754140626,375.99999779296877,532.9000244140625,375.29998779296875,532.9000244140625,374.39999779296875C533.0000000140625,373.49999979296877,533.7000124140625,372.79998779296875,534.5000044140625,372.79998779296875Z" fill="#FFFFFF" fill-opacity="1"/></g><g><path d="M567.09998,372.79998779296875L569.89996,372.79998779296875C570.79999,372.79998779296875,571.49994,373.49999979296877,571.49994,374.39999779296875C571.49994,375.29998779296875,570.79993,375.99999779296877,569.89996,375.99999779296877L567.09998,375.99999779296877C566.199951,375.99999779296877,565.5,375.29998779296875,565.5,374.39999779296875C565.5,373.49999979296877,566.200012,372.79998779296875,567.09998,372.79998779296875Z" fill="#FFFFFF" fill-opacity="1"/></g><g><path d="M576.2999922070312,372.79998779296875L579.0999722070312,372.79998779296875C580.0000022070312,372.79998779296875,580.6999522070313,373.49999979296877,580.6999522070313,374.39999779296875C580.6999522070313,375.29998779296875,579.9999422070313,375.99999779296877,579.0999722070312,375.99999779296877L576.2999922070312,375.99999779296877C575.3999632070313,375.99999779296877,574.7000122070312,375.29998779296875,574.7000122070312,374.39999779296875C574.7000122070312,373.49999979296877,575.4000242070313,372.79998779296875,576.2999922070312,372.79998779296875Z" fill="#FFFFFF" fill-opacity="1"/></g><g><path d="M543.400028828125,372.6000061035156L561.100048828125,372.6000061035156C562.000048828125,372.6000061035156,562.700048828125,373.30001810351564,562.700048828125,374.2000161035156C562.700048828125,375.1000061035156,562.000048828125,375.80001610351565,561.100048828125,375.80001610351565L543.400028828125,375.80001610351565C542.499999828125,375.80001610351565,541.800048828125,375.1000061035156,541.800048828125,374.2000161035156C541.799987792925,373.2999881035156,542.499999828125,372.6000061035156,543.400028828125,372.6000061035156Z" fill="#FFFFFF" fill-opacity="1"/></g><g><path d="M586.7000166210937,372.6000061035156L604.4000366210937,372.6000061035156C605.3000366210938,372.6000061035156,606.0000366210937,373.30001810351564,606.0000366210937,374.2000161035156C606.0000366210937,375.1000061035156,605.3000366210938,375.80001610351565,604.4000366210937,375.80001610351565L586.7000166210937,375.80001610351565C585.7999876210938,375.80001610351565,585.1000366210938,375.1000061035156,585.1000366210938,374.2000161035156C585.2000122210937,373.2999881035156,585.9000246210937,372.6000061035156,586.7000166210937,372.6000061035156Z" fill="#FFFFFF" fill-opacity="1"/></g><g><path d="M543.2000166210937,379.8999938964844L545.9999966210937,379.8999938964844C546.9000266210937,379.8999938964844,547.5999766210938,380.6000058964844,547.5999766210938,381.5000038964844C547.5999766210938,382.3999938964844,546.8999666210938,383.1000038964844,545.9999966210937,383.1000038964844L543.2000166210937,383.1000038964844C542.2999876210938,383.1000038964844,541.6000366210938,382.3999938964844,541.6000366210938,381.5000038964844C541.5999755858937,380.6000058964844,542.2999876210938,379.8999938964844,543.2000166210937,379.8999938964844Z" fill="#FFFFFF" fill-opacity="1"/></g><g><path d="M575.7000166210937,379.8999938964844L578.4999966210937,379.8999938964844C579.4000266210937,379.8999938964844,580.0999766210938,380.6000058964844,580.0999766210938,381.5000038964844C580.0999766210938,382.3999938964844,579.3999666210938,383.1000038964844,578.4999966210937,383.1000038964844L575.7000166210937,383.1000038964844C574.7999876210938,383.1000038964844,574.1000366210938,382.3999938964844,574.1000366210938,381.5000038964844C574.2000122210937,380.6000058964844,574.9000246210937,379.8999938964844,575.7000166210937,379.8999938964844Z" fill="#FFFFFF" fill-opacity="1"/></g><g><path d="M584.900028828125,379.8999938964844L587.700008828125,379.8999938964844C588.600038828125,379.8999938964844,589.299988828125,380.6000058964844,589.299988828125,381.5000038964844C589.299988828125,382.3999938964844,588.599978828125,383.1000038964844,587.700008828125,383.1000038964844L584.900028828125,383.1000038964844C583.999999828125,383.1000038964844,583.300048828125,382.3999938964844,583.300048828125,381.5000038964844C583.400024428125,380.6000058964844,584.099975828125,379.8999938964844,584.900028828125,379.8999938964844Z" fill="#FFFFFF" fill-opacity="1"/></g><g><path d="M552.09998,379.6000061035156L569.8,379.6000061035156C570.7,379.6000061035156,571.4,380.30001810351564,571.4,381.2000161035156C571.4,382.1000061035156,570.7,382.80001610351565,569.8,382.80001610351565L552.09998,382.80001610351565C551.199951,382.80001610351565,550.5,382.1000061035156,550.5,381.2000161035156C550.5,380.2999881035156,551.200012,379.6000061035156,552.09998,379.6000061035156Z" fill="#FFFFFF" fill-opacity="1"/></g><g><path d="M549.7000166210937,407.8999938964844L552.4999966210937,407.8999938964844C553.4000266210937,407.8999938964844,554.0999766210938,408.6000058964844,554.0999766210938,409.5000038964844C554.0999766210938,410.3999938964844,553.3999666210938,411.1000038964844,552.4999966210937,411.1000038964844L549.7000166210937,411.1000038964844C548.7999876210938,411.1000038964844,548.1000366210938,410.3999938964844,548.1000366210938,409.5000038964844C548.2000122210937,408.6000058964844,548.9000246210937,407.8999938964844,549.7000166210937,407.8999938964844Z" fill="#FFFFFF" fill-opacity="1"/></g><g><path d="M558.900028828125,407.8999938964844L561.700008828125,407.8999938964844C562.600038828125,407.8999938964844,563.299988828125,408.6000058964844,563.299988828125,409.5000038964844C563.299988828125,410.3999938964844,562.599978828125,411.1000038964844,561.700008828125,411.1000038964844L558.900028828125,411.1000038964844C557.999999828125,411.1000038964844,557.300048828125,410.3999938964844,557.300048828125,409.5000038964844C557.400024428125,408.6000058964844,558.099975828125,407.8999938964844,558.900028828125,407.8999938964844Z" fill="#FFFFFF" fill-opacity="1"/></g><g><path d="M569.400028828125,408.20001220703125L587.100048828125,408.20001220703125C588.000048828125,408.20001220703125,588.700048828125,408.90002420703127,588.700048828125,409.80002220703125C588.700048828125,410.70001220703125,588.000048828125,411.40002220703127,587.100048828125,411.40002220703127L569.400028828125,411.40002220703127C568.499999828125,411.40002220703127,567.800048828125,410.70001220703125,567.800048828125,409.80002220703125C567.799987792925,408.8999942070312,568.499999828125,408.20001220703125,569.400028828125,408.20001220703125Z" fill="#FFFFFF" fill-opacity="1"/></g><g><path d="M517.2000166210937,407.8999938964844L519.9999966210937,407.8999938964844C520.9000266210937,407.8999938964844,521.5999766210938,408.6000058964844,521.5999766210938,409.5000038964844C521.5999766210938,410.3999938964844,520.8999666210938,411.1000038964844,519.9999966210937,411.1000038964844L517.2000166210937,411.1000038964844C516.2999876210938,411.1000038964844,515.6000366210938,410.3999938964844,515.6000366210938,409.5000038964844C515.5999755858937,408.6000058964844,516.2999876210938,407.8999938964844,517.2000166210937,407.8999938964844Z" fill="#FFFFFF" fill-opacity="1"/></g><g><path d="M526.0000044140625,408.20001220703125L543.7000244140625,408.20001220703125C544.6000244140625,408.20001220703125,545.3000244140625,408.90002420703127,545.3000244140625,409.80002220703125C545.3000244140625,410.70001220703125,544.6000244140625,411.40002220703127,543.7000244140625,411.40002220703127L526.0000044140625,411.40002220703127C525.0999754140626,411.40002220703127,524.4000244140625,410.70001220703125,524.4000244140625,409.80002220703125C524.5000000140625,408.8999942070312,525.2000124140625,408.20001220703125,526.0000044140625,408.20001220703125Z" fill="#FFFFFF" fill-opacity="1"/></g><g><path d="M525.900028828125,400.8999938964844L528.700008828125,400.8999938964844C529.600038828125,400.8999938964844,530.299988828125,401.6000058964844,530.299988828125,402.5000038964844C530.299988828125,403.3999938964844,529.599978828125,404.1000038964844,528.700008828125,404.1000038964844L525.900028828125,404.1000038964844C524.999999828125,404.1000038964844,524.300048828125,403.3999938964844,524.300048828125,402.5000038964844C524.299987792925,401.4999998964844,524.999999828125,400.8999938964844,525.900028828125,400.8999938964844Z" fill="#FFFFFF" fill-opacity="1"/></g><g><path d="M558.400028828125,400.8999938964844L561.200008828125,400.8999938964844C562.100038828125,400.8999938964844,562.799988828125,401.6000058964844,562.799988828125,402.5000038964844C562.799988828125,403.3999938964844,562.099978828125,404.1000038964844,561.200008828125,404.1000038964844L558.400028828125,404.1000038964844C557.499999828125,404.1000038964844,556.800048828125,403.3999938964844,556.800048828125,402.5000038964844C556.799987792925,401.4999998964844,557.499999828125,400.8999938964844,558.400028828125,400.8999938964844Z" fill="#FFFFFF" fill-opacity="1"/></g><g><path d="M567.59998,400.8999938964844L570.39996,400.8999938964844C571.29999,400.8999938964844,571.99994,401.6000058964844,571.99994,402.5000038964844C571.99994,403.3999938964844,571.29993,404.1000038964844,570.39996,404.1000038964844L567.59998,404.1000038964844C566.699951,404.1000038964844,566,403.3999938964844,566,402.5000038964844C566,401.4999998964844,566.700012,400.8999938964844,567.59998,400.8999938964844Z" fill="#FFFFFF" fill-opacity="1"/></g><g><path d="M534.7000166210937,401.1000061035156L552.4000366210937,401.1000061035156C553.3000366210938,401.1000061035156,554.0000366210937,401.80001810351564,554.0000366210937,402.7000161035156C554.0000366210937,403.6000061035156,553.3000366210938,404.30001610351565,552.4000366210937,404.30001610351565L534.7000166210937,404.30001610351565C533.7999876210938,404.30001610351565,533.1000366210938,403.6000061035156,533.1000366210938,402.7000161035156C533.2000122210937,401.7999881035156,533.7999876210938,401.1000061035156,534.7000166210937,401.1000061035156Z" fill="#FFFFFF" fill-opacity="1"/></g><g><path d="M534.5000044140625,393.79998779296875L537.2999844140625,393.79998779296875C538.2000144140625,393.79998779296875,538.8999644140625,394.49999979296877,538.8999644140625,395.39999779296875C538.8999644140625,396.29998779296875,538.1999544140625,396.99999779296877,537.2999844140625,396.99999779296877L534.5000044140625,396.99999779296877C533.5999754140626,396.99999779296877,532.9000244140625,396.29998779296875,532.9000244140625,395.39999779296875C533.0000000140625,394.49999979296877,533.7000124140625,393.79998779296875,534.5000044140625,393.79998779296875Z" fill="#FFFFFF" fill-opacity="1"/></g><g><path d="M567.09998,393.79998779296875L569.89996,393.79998779296875C570.79999,393.79998779296875,571.49994,394.49999979296877,571.49994,395.39999779296875C571.49994,396.29998779296875,570.79993,396.99999779296877,569.89996,396.99999779296877L567.09998,396.99999779296877C566.199951,396.99999779296877,565.5,396.29998779296875,565.5,395.39999779296875C565.5,394.49999979296877,566.200012,393.79998779296875,567.09998,393.79998779296875Z" fill="#FFFFFF" fill-opacity="1"/></g><g><path d="M576.2999922070312,393.79998779296875L579.0999722070312,393.79998779296875C580.0000022070312,393.79998779296875,580.6999522070313,394.49999979296877,580.6999522070313,395.39999779296875C580.6999522070313,396.29998779296875,579.9999422070313,396.99999779296877,579.0999722070312,396.99999779296877L576.2999922070312,396.99999779296877C575.3999632070313,396.99999779296877,574.7000122070312,396.29998779296875,574.7000122070312,395.39999779296875C574.7000122070312,394.49999979296877,575.4000242070313,393.79998779296875,576.2999922070312,393.79998779296875Z" fill="#FFFFFF" fill-opacity="1"/></g><g><path d="M543.400028828125,394.1000061035156L561.100048828125,394.1000061035156C562.000048828125,394.1000061035156,562.700048828125,394.80001810351564,562.700048828125,395.7000161035156C562.700048828125,396.6000061035156,562.000048828125,397.30001610351565,561.100048828125,397.30001610351565L543.400028828125,397.30001610351565C542.499999828125,397.30001610351565,541.800048828125,396.6000061035156,541.800048828125,395.7000161035156C541.799987792925,394.7999881035156,542.499999828125,394.1000061035156,543.400028828125,394.1000061035156Z" fill="#FFFFFF" fill-opacity="1"/></g><g><path d="M543.2000166210937,386.79998779296875L545.9999966210937,386.79998779296875C546.9000266210937,386.79998779296875,547.5999766210938,387.49999979296877,547.5999766210938,388.39999779296875C547.5999766210938,389.29998779296875,546.8999666210938,389.99999779296877,545.9999966210937,389.99999779296877L543.2000166210937,389.99999779296877C542.2999876210938,389.99999779296877,541.6000366210938,389.29998779296875,541.6000366210938,388.39999779296875C541.5999755858937,387.49999979296877,542.2999876210938,386.79998779296875,543.2000166210937,386.79998779296875Z" fill="#FFFFFF" fill-opacity="1"/></g><g><path d="M575.7000166210937,386.79998779296875L578.4999966210937,386.79998779296875C579.4000266210937,386.79998779296875,580.0999766210938,387.49999979296877,580.0999766210938,388.39999779296875C580.0999766210938,389.29998779296875,579.3999666210938,389.99999779296877,578.4999966210937,389.99999779296877L575.7000166210937,389.99999779296877C574.7999876210938,389.99999779296877,574.1000366210938,389.29998779296875,574.1000366210938,388.39999779296875C574.2000122210937,387.49999979296877,574.9000246210937,386.79998779296875,575.7000166210937,386.79998779296875Z" fill="#FFFFFF" fill-opacity="1"/></g><g><path d="M584.900028828125,386.79998779296875L587.700008828125,386.79998779296875C588.600038828125,386.79998779296875,589.299988828125,387.49999979296877,589.299988828125,388.39999779296875C589.299988828125,389.29998779296875,588.599978828125,389.99999779296877,587.700008828125,389.99999779296877L584.900028828125,389.99999779296877C583.999999828125,389.99999779296877,583.300048828125,389.29998779296875,583.300048828125,388.39999779296875C583.400024428125,387.49999979296877,584.099975828125,386.79998779296875,584.900028828125,386.79998779296875Z" fill="#FFFFFF" fill-opacity="1"/></g><g><path d="M552.09998,387L569.8,387C570.7,387,571.4,387.700012,571.4,388.60001C571.4,389.5,570.7,390.20001,569.8,390.20001L552.09998,390.20001C551.199951,390.20001,550.5,389.5,550.5,388.60001C550.5,387.700012,551.200012,387,552.09998,387Z" fill="#FFFFFF" fill-opacity="1"/></g><g><path d="M516.46917,485L508,471.03L534.6811,448.9163L545.6974,436.20423C550.2185,430.97375,557.9236,430.5765,562.9541,435.27732C564.546,436.73391,565.6922,438.65396,566.3927,440.70643C568.4304,447.1949,565.1828,454.213,559.0061000000001,456.5965L541.622,463.2836L516.46917,485Z" fill="#FFB6B6" fill-opacity="1"/></g><g><path d="M191.6999969482422,337.5L191.6999969482422,440L263.59999694824216,440L263.59999694824216,337.5C263.59999694824216,336,262.59999694824216,334.600006,261.1999969482422,334.200012C260.8999969482422,334.100006,260.4999969482422,334,260.1999969482422,334L195.3000169482422,334C193.1999969482422,334,191.6999969482422,335.60001,191.6999969482422,337.5ZM219.6999969482422,372.7C219.6999969482422,368.5,223.1999969482422,365.1,227.39999694824218,365.1C231.5999969482422,365.1,234.9999969482422,368.5,234.9999969482422,372.7L234.9999969482422,384.6C234.9999969482422,388.8,231.4999969482422,392.3,227.29999694824218,392.2C223.0999969482422,392.2,219.6999969482422,388.8,219.6999969482422,384.6L219.6999969482422,372.7Z" fill="#2F2E41" fill-opacity="1"/></g><g><path d="M191.5,436.79998779296875L191.5,446.69997779296875C191.5,447.79998779296875,192.399994,448.59998779296876,193.39999,448.59998779296876L261.8,448.59998779296876C262.9,448.59998779296876,263.7,447.6999877929687,263.7,446.69997779296875L263.7,436.79998779296875L191.5,436.79998779296875Z" fill="#3F3D56" fill-opacity="1"/></g><g><path d="M78.69999694824219,183L78.69999694824219,370.3C78.69999694824219,375.3,82.69999694824219,379.3,87.69999694824219,379.3L365.1999969482422,379.3C370.1999969482422,379.3,374.1999969482422,375.3,374.1999969482422,370.3L374.1999969482422,183C374.1999969482422,178,370.1999969482422,174,365.1999969482422,174L87.69999694824219,174C82.69999694824219,174,78.69999694824219,178,78.69999694824219,183Z" fill="#3F3D56" fill-opacity="1"/></g><g><path d="M85.19999694824219,185.3L85.19999694824219,367.9C85.19999694824219,370.6,87.39999694824219,372.7,89.99999694824218,372.7L362.8999969482422,372.7C365.59999694824216,372.7,367.6999969482422,370.5,367.6999969482422,367.9L367.6999969482422,185.3C367.6999969482422,182.60001,365.4999969482422,180.5,362.8999969482422,180.5L89.99999694824218,180.5C87.30000694824218,180.5,85.19999694824219,182.60001,85.19999694824219,185.3Z" fill="#FFFFFF" fill-opacity="1"/></g><g><g><path d="M324.68899999999996,346L128.31101999999998,346C123.17111,345.994,119.00582077,341.81100000000004,119,336.65L119,236.35C119.00582077,231.18856,123.17108,227.00582784,128.31101999999998,227L324.68899999999996,227C329.829,227.00582784,333.994,231.18856,334,236.35L334,336.65C333.994,341.81100000000004,329.829,345.994,324.68899999999996,346Z" fill="#E6E6E6" fill-opacity="1"/></g><g><path d="M326.024,343L126.97619,343C124.22918,342.997,122.00307296,340.687,122,337.836L122,235.16398C122.00303723,232.3133,124.22918,230.00317038,126.97619,230L326.024,230C328.77099999999996,230.00317038,330.997,232.3133,331,235.16398L331,337.836C330.997,340.687,328.77099999999996,342.997,326.024,343Z" fill="#FFFFFF" fill-opacity="1"/></g><g><path d="M301.21083300781254,325.37333251953123L150.2199130078125,325.37333251953123C147.7119430078125,325.37333251953123,145.6788330078125,323.24220251953125,145.6788330078125,320.61333251953124C145.6788330078125,317.98446251953123,147.7119430078125,315.85333251953125,150.2199130078125,315.85333251953125L301.21083300781254,315.85333251953125C303.71883300781246,315.85333251953125,305.7518330078125,317.98446251953123,305.7518330078125,320.61333251953124C305.7518330078125,323.24220251953125,303.71883300781246,325.37333251953123,301.21083300781254,325.37333251953123Z" fill="#E6E6E6" fill-opacity="1"/></g><g><path d="M301.21083300781254,306.3333316040039L150.2199130078125,306.3333316040039C147.7119430078125,306.3333316040039,145.6788330078125,304.2022016040039,145.6788330078125,301.5733316040039C145.6788330078125,298.9444616040039,147.7119430078125,296.8133316040039,150.2199130078125,296.8133316040039L301.21083300781254,296.8133316040039C303.71883300781246,296.8133316040039,305.7518330078125,298.9444616040039,305.7518330078125,301.5733316040039C305.7518330078125,304.2022016040039,303.71883300781246,306.3333316040039,301.21083300781254,306.3333316040039Z" fill="#E6E6E6" fill-opacity="1"/></g><g><path d="M183.2489330078125,284.1200331298828L150.4810230078125,284.1200331298828C147.8300630078125,284.1169331298828,145.6817985178125,281.8769331298828,145.6788330078125,279.1127331298828L145.6788330078125,254.22062312988282C145.6817985178125,251.4564431298828,147.8300630078125,249.21640731988282,150.4810230078125,249.2133331298828L183.2489330078125,249.2133331298828C185.8998330078125,249.21640731988282,188.0481330078125,251.4564431298828,188.0511330078125,254.22062312988282L188.0511330078125,279.1127331298828C188.0481330078125,281.8768331298828,185.8998330078125,284.1169331298828,183.2489330078125,284.1200331298828Z" fill="#00B0FF" fill-opacity="1"/></g><g><path d="M301.2621013305664,280.9466662597656L225.4970813305664,280.9466662597656C223.0174413305664,280.9466662597656,221.0073013305664,278.8155362597656,221.0073013305664,276.1866662597656C221.0073013305664,273.5577962597656,223.0174413305664,271.4266662597656,225.4970813305664,271.4266662597656L301.2621013305664,271.4266662597656C303.7417013305664,271.4266662597656,305.7518013305664,273.5577962597656,305.7518013305664,276.1866662597656C305.7518013305664,278.8155362597656,303.7417013305664,280.9466662597656,301.2621013305664,280.9466662597656Z" fill="#CCCCCC" fill-opacity="1"/></g><g><path d="M269.8717013305664,261.9066672515869L225.5005813305664,261.9066672515869C223.0190113305664,261.9066672515869,221.0073013305664,259.7755372515869,221.0073013305664,257.1466672515869C221.0073013305664,254.51779725158693,223.0190113305664,252.3866672515869,225.5005813305664,252.3866672515869L269.8717013305664,252.3866672515869C272.3533013305664,252.3866672515869,274.36500133056643,254.51779725158693,274.36500133056643,257.1466672515869C274.36500133056643,259.7755372515869,272.3533013305664,261.9066672515869,269.8717013305664,261.9066672515869Z" fill="#CCCCCC" fill-opacity="1"/></g></g><g><path d="M135.80000271191406,447.89996948242185C136.40000471191405,448.5999694824219,137.19999471191406,448.9999694824219,138.10000471191407,448.9999694824219L300.40045471191405,448.9999694824219C302.0004547119141,448.9999694824219,303.40045471191405,447.69996948242186,303.40045471191405,445.9999694824219C303.40045471191405,445.7999694824219,303.40045471191405,445.5999694824219,303.3004547119141,445.39996948242185L300.8004547119141,433.39998948242186C300.60045471191404,432.39998948242186,299.90045471191405,431.60000648242186,298.90045471191405,431.1999814824219C298.60045471191404,431.0999754824219,298.20045471191406,430.9999694824219,297.8004547119141,430.9999694824219L140.60000471191407,430.9999694824219C140.20001471191406,430.9999694824219,139.90000471191405,431.0999754824219,139.50000471191407,431.1999814824219C138.60000471191407,431.5999754824219,137.89999471191408,432.39998948242186,137.60000471191407,433.39998948242186L135.10000611191407,445.39996948242185C135.00000001191407,446.2999694824219,135.19999671191405,447.19996948242186,135.80000271191406,447.89996948242185Z" fill="#2F2E41" fill-opacity="1"/></g><g><path d="M353.9999969482422,205.60000610351562L98.69999694824219,205.60000610351562C98.09999894824219,205.60000610351562,97.69999694824219,205.10000610351562,97.69999694824219,204.60000610351562C97.69999694824219,204.10000610351562,98.09999894824219,203.60000610351562,98.69999694824219,203.60000610351562L353.9999969482422,203.60000610351562C354.59999694824216,203.60000610351562,354.9999969482422,204.10000610351562,354.9999969482422,204.60000610351562C354.9999969482422,205.19999610351562,354.4999969482422,205.60000610351562,353.9999969482422,205.60000610351562Z" fill="#3F3D56" fill-opacity="1"/></g><g><path d="M290.70001220703125,376.7999657226562L290.90002420703127,377.49996572265627L297.40002220703127,397.2999657226562L304.90001220703124,420.19996572265626L319.00001220703126,463.1998657226562L319.1000122070312,469.8998657226563L320.1000122070312,523.5998657226562L317.20001220703125,530.8998657226563L320.50001220703126,542.7998657226562Q319.00001220703126,524.7998657226562,310.90001220703124,535.0998657226562C306.3000122070313,540.9998657226563,301.00001220703126,546.9998657226563,296.60003220703123,552.6998657226562C303.00001220703126,555.2998657226562,309.50001220703126,557.5998657226562,316.1000122070312,559.6998657226562C317.50001220703126,560.1998657226562,319.00001220703126,560.5998657226562,320.40001220703124,560.9998657226563C320.70001220703125,561.0998657226562,321.00001220703126,561.1998657226562,321.3000122070313,561.2998657226562C343.20001220703125,567.7998657226562,365.8000122070313,571.3998657226563,388.70001220703125,572.0998657226562C389.90001220703124,572.0998657226562,391.00001220703126,572.1998657226562,392.20001220703125,572.1998657226562C392.6000122070312,572.1998657226562,393.00001220703126,572.1998657226562,393.40001220703124,572.1998657226562C394.70001220703125,572.1998657226562,395.90001220703124,572.1998657226562,397.20001220703125,572.1998657226562C399.8000122070313,572.1998657226562,402.3000122070313,572.1998657226562,404.90001220703124,572.0998657226562C423.8000122070313,571.5998657226562,442.6000122070312,568.9998657226563,461.00001220703126,564.4998657226563C460.90001220703124,556.8998657226563,460.50001220703126,548.0998657226562,460.00001220703126,538.5998657226562C459.8000122070313,533.9998657226563,454.6000122070312,528.8998657226563,454.3000122070313,524.0998657226562C454.1000122070312,520.3998657226563,458.70001220703125,516.9998657226563,458.40001220703124,513.2998657226562C456.8000122070313,490.49986572265624,454.90001220703124,499.1998657226562,453.50001220703126,483.09986572265626C453.40001220703124,481.49986572265624,453.20001220703125,479.99986572265624,453.1000122070312,478.49986572265624Q452.20001220703125,468.09986572265626,451.50001220703126,461.59986572265626L457.6000122070312,422.8998657226563L467.20001220703125,362.1998657226562L466.50001220703126,360.99986572265624L465.70001220703125,360.59986572265626L414.90001220703124,335.3998657226563L412.1000122070312,328.29986572265625C410.50001220703126,324.09985572265623,406.40001220703124,321.39987172265626,402.00001220703126,321.39987172265626L368.50001220703126,321.29986572265625C365.00001220703126,321.29986572265625,361.7001122070312,322.99987572265627,359.60011220703126,325.79986572265625L350.50001220703126,338.3998657226563L290.70001220703125,376.7999657226562Z" fill="#3F3D56" fill-opacity="1"/></g><g><path d="M326.79999084472655,453.69996713867187L319.1999908447266,469.9000671386719L313.99999084472654,481.00006713867185L305.09999084472656,527.6000671386719L300.59999084472656,532.3000671386719L296.79999084472655,515.5000671386719L256.79999084472655,524.4000671386718C255.49998484472655,517.1000671386719,256.39999384472657,524.6000671386719,255.59999084472656,516.6000671386719C255.79998784472656,516.4000671386718,256.09997584472654,516.1000671386719,256.29998784472656,515.9000671386718C256.8999908447266,515.3000671386719,257.50000084472657,514.7000671386719,257.50000084472657,514.2000671386719C257.00000084472657,486.6000671386719,258.3999908447266,439.7000671386719,269.79999084472655,411.2000671386719C271.59999084472656,406.6000671386719,273.99999084472654,402.2000671386719,276.79999084472655,398.1000671386719C276.99999084472654,397.80006713867186,277.1999908447266,397.50006713867185,277.49999084472654,397.2000671386719C282.79999084472655,389.80006713867186,286.09999084472656,382.6000671386719,290.79999084472655,377.4000671386719L290.8999908447266,377.30006713867186L323.29999084472655,360.1000671386719L324.6999908447266,399.2000671386719L325.6999908447266,427.30006713867186L326.79999084472655,453.69996713867187Z" fill="#3F3D56" fill-opacity="1"/></g><g><path d="M443.79998779296875,458.2999755859375L453.29998779296875,478.5999755859375L456.59998779296876,485.6999755859375L465.49998779296874,532.2999755859375L469.8999877929688,536.9999755859375L473.6999877929687,520.1999755859375L475.49998779296874,519.7999755859375L507.99998779296874,513.0999755859375L517.4999877929688,543.0999755859375C521.8999877929688,535.7999755859375,520.4999877929688,526.3999755859375,514.1999877929687,520.5999755859375C513.5999877929687,519.9999755859375,512.9999877929688,519.3999755859375,512.9999877929688,518.8999755859375C513.4999877929688,486.4999755859375,511.59998779296876,427.1999755859375,493.59998779296876,402.7999755859375C487.89988779296874,395.0999755859375,484.49998779296874,387.3999755859375,479.49998779296874,381.9999755859375L467.39988779296874,362.1999855859375L466.69988779296875,360.9999695859375L465.89988779296874,360.5999755859375L443.79998779296875,458.2999755859375Z" fill="#3F3D56" fill-opacity="1"/></g><g><ellipse cx="386.39998626708984" cy="267.2000045776367" rx="44.599998474121094" ry="44.599998474121094" fill="#FFB6B6" fill-opacity="1"/></g><g><path d="M332.0292792,251.347C331.629285,269.347,335.32927,284.047,343.0293,295.047C343.6293,295.847,343.7293,297.547,344.8293,298.047L344.6293,297.647C345.8293,298.247,347.1293,299.247,346.6293,300.347C345.3293,303.4471,354.2293,310.247,360.5292,312.447C372.0292,316.547,387.4292,316.247,398.1293,314.747L398.52930000000003,312.247C402.4292,311.747,405.1293,310.747,405.9292,309.147C407.3292,307.947,408.4292,306.947,409.4292,305.947Q409.52930000000003,305.947,409.52930000000003,305.847C414.4292,301.147,415.52930000000003,298.547,416.02930000000003,294.447C416.52930000000003,290.447,415.6293,286.447,414.72929999999997,282.847C423.9171,284.2719,422.2901,279.4685,420.3331,273.6913C418.3071,267.7101,415.9275,260.6852,424.8293,258.447C425.02930000000003,258.347,425.22929999999997,258.347,425.4293,258.347C425.9293,258.247,426.4293,258.147,426.9293,257.947C429.3293,257.347,431.52930000000003,256.347,433.629,255.047Q438.529,252.047,441.5,242.7233C437.4,235.8233,428,214.27078,404,208.74704C399.6742,207.75144,396.625,207.03982,394.5016,206.540439L390,206.147033Q384.7073,205.85297,375.2293,206.147027Q368.0292,206.847024,364.8293,208.74703C362.1293,210.44703,359.8293,213.74703,360.3293,217.147C351.8293,214.54702,342.8293,219.747,338.32927,226.247C333.02927999999997,234.047,332.129255,243.747,332.0292792,251.347Z" fill="#2F2E41" fill-opacity="1"/></g><g><path d="M539,476.8897C539,478.4348,539,480.495,538.902,483.0702C538.902,483.4135,538.902,483.7569,538.902,484.1861C538.804,488.9931,538.607,492.94169999999997,538.4110000000001,497.4054C538.4110000000001,497.7487,538.4110000000001,498.0063,538.4110000000001,498.3496C538.116,504.5301,537.723,511.8265,536.938,523.2429999999999Q535.563,544.446,530.5,536.5Q531.25,537,532,537.5Q532.75,538,533.5,538.5Q525.842,541.527,524.566,542.2139999999999C520.8340000000001,544.016,517.1030000000001,545.733,513.273,547.45C511.113,548.394,508.953,549.253,506.793,550.197C506.498,550.3679999999999,506.105,550.454,505.81100000000004,550.626C494.71500000000003,555.09,483.325,558.867,471.64,562.043C469.381,562.644,467.123,563.244,464.76599999999996,563.759C462.409,564.36,459.95500000000004,564.875,457.598,565.39C439.531,569.2529999999999,421.07,571.485,402.512,571.914C400.057,572,397.504,572,394.951,572C393.674,572,392.496,572,391.22,572C390.827,572,390.43399999999997,572,390.041,572C388.961,572,387.783,572,386.60400000000004,571.914C364.217,571.313,341.9267,568.137,320.5206,562.644L319.63689999999997,562.386C318.2622,562.043,316.7893,561.613,315.4146,561.27C308.9339,559.467,302.55129999999997,557.4929999999999,296.267,555.261C291.45550000000003,553.545,286.7423,551.742,282.029,549.853Q281.9308,549.853,281.9308,549.768C280.9489,549.338,279.9669,548.995,278.985,548.566C278.8868,548.48,278.6904,548.48,278.5922,548.394C274.9591,546.849,271.326,545.218,267.6928,543.501C264.6488,537.407,260.42655,536.2909999999999,257.77532,530.969C256.98979,529.424,256.49883,527.707,256.10605,526.076Q256.10605,526.076,256.10605,525.99C256.40063,529.1659999999999,254.92773,520.3246,256.10605,525.99C256.10605,525.904,256.10605,525.818,256.10605,525.647C256.10605,525.303,256.00785,524.96,256.00785,524.531C252.66929,495.7745,252.86568,462.8979,251.392781,435.7726C251.294582,434.0558,251.196398,432.339,251.098199,430.70803C251.098199,430.19299,251,429.67794,251,429.16293C251.098199,428.99124,251.098199,428.81957,251.196383,428.73373C251.196383,428.64788,251.196383,428.64788,251.294582,428.56204C251.294582,428.47619,251.392781,428.47619,251.392781,428.39035Q251.392781,428.3045,251.49098,428.3045L251.49098,428.21866C251.589179,428.13281,251.687363,427.96115,251.785562,427.87531C251.785562,427.78946,251.883761,427.78946,251.883761,427.70362Q251.883761,427.61777,251.98196,427.61777L252.08016,427.53193L252.17836,427.44608Q252.17836,427.36024,252.27656,427.36024C252.37476,427.27439,252.47294,427.18855,252.57114,427.18855C252.9639,426.93104,253.25849,426.6735,253.65127,426.41599C253.74947,426.33015,253.94585,426.24431,254.04403,426.15849C255.02596,425.64344,256.10609,425.21425,257.18622,424.87089C257.57899,424.78505,257.97175,424.61338,258.36455,424.52754C258.46275,424.52754,258.65912,424.44169,258.75731,424.44169C258.95371,424.35585,259.15008,424.35585,259.44468,424.27C260.52481,424.0125,261.8013,423.75496,263.0778,423.49745C263.2742,423.49745,263.3724,423.41161,263.5688,423.41161C263.7652,423.41161,264.0598,423.32576,264.2562,423.32576C264.5507,423.23992,264.9435,423.23992,265.2381,423.15407C268.1839,422.724874,271.4242,422.467366,275.1556,422.295676C275.5483,422.295676,275.8429,422.295676,276.1375,422.209831C276.5303,422.209831,276.923,422.209831,277.3158,422.123987C277.7086,422.123987,278.0032,422.123987,278.396,422.123987C278.7887,422.123987,279.0833,422.123987,279.4761,422.123987C280.45799999999997,422.123987,281.44,422.0381416,282.5201,422.0381416C285.4659,421.9522968,288.6081,422.0381416,291.84839999999997,422.0381416C293.3213,422.0381416,294.8924,422.123987,296.5617,422.209831C296.6599,422.209831,296.7581,422.209831,296.8562,422.209831C298.2309,422.209831,299.6056,422.295676,301.0785,422.381521C302.0605,422.381521,303.0424,422.467366,304.1225,422.553211C305.1044,422.639056,305.9882,422.639056,306.9701,422.724901C307.7556,422.724901,308.443,422.810746,309.2285,422.89659C309.9159,422.89659,310.505,422.982435,311.1924,422.982435L312.0761,423.06828C312.5671,423.06828,313.058,423.15413,313.549,423.15413C314.6291,423.23997,315.7093,423.32581,316.7894,423.41163C317.8695,423.49748,318.94960000000003,423.58332,320.1279,423.66914C321.3062,423.75496,322.3864,423.84083,323.4665,423.92665C323.5647,423.92665,323.6629,423.92665,323.76099999999997,423.92665C324.743,424.0125,325.8231,424.09834,326.805,424.18416C327.0014,424.18416,327.296,424.18416,327.4924,424.27C328.47429999999997,424.35585,329.4563,424.44169,330.4382,424.52751C330.7327,424.52751,331.0274,424.61336,331.3219,424.61336C332.1074,424.6992,332.89300000000003,424.78505,333.6785,424.87087C334.6605,424.95671,335.7406,425.04256,336.8207,425.21422C337.60630000000003,425.30006,338.3918,425.38591,339.17740000000003,425.47173C340.4539,425.64342,341.73040000000003,425.72924,342.9087,425.90093C343.3996,425.98677,343.8906,425.98677,344.3816,426.07262C348.0147,426.50181,351.648,426.93101,355.379,427.36021C360.976,428.04692,366.671,428.81949,372.46500000000003,429.59205C378.258,430.45044,384.052,431.30884,389.845,432.1672C391.318,432.4247,392.791,432.5964,394.264,432.8539C394.951,432.9398,395.63800000000003,433.1115,396.227,433.1973C397.406,433.369,398.486,433.5406,399.664,433.7982C400.84299999999996,433.9699,401.923,434.1415,403.101,434.3991C404.476,434.6566,405.85,434.8283,407.225,435.0858C416.161,436.6309,424.998,438.2619,433.73699999999997,439.97860000000003C435.21000000000004,440.2362,436.58500000000004,440.5795,437.959,440.837C440.807,441.4379,443.557,441.9529,446.404,442.5538C447.19,442.7255,447.877,442.8972,448.663,443.0689C450.528,443.4981,452.394,443.9273,454.26,444.3565L454.554,444.4423C455.929,444.6998,457.303,445.0432,458.58000000000004,445.3007C461.722,445.9874,464.86400000000003,446.76,467.908,447.4467C469.97,447.9618,471.93399999999997,448.3909,473.898,448.906C476.844,449.6785,479.78999999999996,450.4511,482.539,451.13779999999997C483.226,451.3095,483.914,451.4812,484.601,451.7387C486.663,452.3396,488.725,452.8546,490.68899999999996,453.45550000000003C492.26,453.8847,493.831,454.3139,495.304,454.8289C496.777,455.2581,498.25,455.7732,499.723,456.2024C500.70500000000004,456.4599,501.589,456.8033,502.472,457.0608C503.749,457.49,505.124,457.9192,506.4,458.34839999999997C506.793,458.5201,507.186,458.6059,507.578,458.7776C507.775,458.8634,508.069,458.9493,508.266,459.0351C508.757,459.2068,509.248,459.3784,509.64,459.5501C510.131,459.72180000000003,510.524,459.8935,511.015,460.0652C511.506,460.2369,511.899,460.4085,512.2919999999999,460.5802C512.783,460.7519,513.175,460.9236,513.568,461.0953C513.961,461.2669,514.255,461.3528,514.648,461.5245C515.336,461.782,516.023,462.0395,516.71,462.297C517.005,462.4687,517.398,462.5545,517.692,462.7262L518.4780000000001,463.0696C518.576,463.1554,518.674,463.1554,518.7719999999999,463.2412C518.969,463.3271,519.2629999999999,463.4129,519.558,463.5846C520.1469999999999,463.8421,520.736,464.0996,521.227,464.2713C522.0129999999999,464.61469999999997,522.7,464.95799999999997,523.387,465.2155C524.075,465.5589,524.762,465.90229999999997,525.4490000000001,466.1598C525.548,466.2456,525.646,466.2456,525.744,466.3315C525.94,466.4173,526.038,466.5032,526.235,466.5032C526.726,466.7607,527.217,467.0182,527.7080000000001,467.27570000000003C528.69,467.7908,529.573,468.3058,530.3589999999999,468.8208C530.5550000000001,468.9067,530.752,469.0783,530.948,469.1642C531.537,469.5934,532.126,469.9367,532.716,470.2801C532.912,470.3659,533.108,470.5376,533.207,470.6234C533.403,470.7093,533.501,470.8809,533.698,470.9668C534.1890000000001,471.396,534.679,471.7393,535.072,472.0827C535.1700000000001,472.1685,535.367,472.3402,535.4649999999999,472.426C535.563,472.426,535.563,472.51189999999997,535.6610000000001,472.59770000000003C535.858,472.7694,536.054,472.9411,536.152,473.1128Q536.152,473.1986,536.251,473.1986C536.447,473.4561,536.742,473.7137,536.938,473.88530000000003C537.0360000000001,473.9712,537.134,474.1428,537.233,474.2287C537.331,474.4004,537.429,474.4862,537.527,474.6579C537.625,474.7437,537.723,474.9154,537.723,475.0012C537.9200000000001,475.3446,538.116,475.6021,538.2139999999999,475.9455C538.313,476.203,538.4110000000001,476.3747,538.509,476.6322C538.902,476.4605,539,476.7181,539,476.8897Z" fill="#2F2E41" fill-opacity="1"/></g><g><path d="M552 340C552 340 552 340 552 340L572 340C572 340 572 340 572 340L572 344C572 344.5522847498308 571.5522847498308 345 571 345L553 345C552.4477152501692 345 552 344.5522847498308 552 344Z" fill="#3F3D56" fill-opacity="1"/></g><g><ellipse cx="561.5" cy="342.5" rx="1.5" ry="1.5" fill="#2E2E2E" fill-opacity="0.30000001192092896"/></g><g><g><g><ellipse cx="106" cy="192.09999990463257" rx="6" ry="6.099999904632568" fill="#F65F57" fill-opacity="1"/></g><g><ellipse cx="127" cy="192.09999990463257" rx="6" ry="6.099999904632568" fill="#F9BC2E" fill-opacity="1"/></g><g><ellipse cx="148" cy="192.09999990463257" rx="6" ry="6.099999904632568" fill="#3CC840" fill-opacity="1"/></g></g></g><g><g><path d="M349.6794,187L335.07941,187C334.479187,187.0127594,334,187.456716,334,188.00001C334,188.54331,334.479248,188.9873,335.07941,189L349.6794,189C350.2833,188.99199,350.7683,188.54663,350.7683,187.999986C350.7683,187.453347,350.2833,187.00800917,349.6794,187Z" fill="#3F3D56" fill-opacity="1"/></g><g><path d="M349.6794,192L335.07941,192C334.479187,192.0127594,334,192.456716,334,193.00001C334,193.54331,334.479248,193.9873,335.07941,194L349.6794,194C350.2833,193.99199,350.7683,193.54663,350.7683,192.999986C350.7683,192.453347,350.2833,192.00800917,349.6794,192Z" fill="#3F3D56" fill-opacity="1"/></g><g><path d="M349.6794,197L335.07941,197C334.479187,197.0127594,334,197.456716,334,198.00001C334,198.54331,334.479248,198.9873,335.07941,199L349.6794,199C350.2833,198.99199,350.7683,198.54663,350.7683,197.999986C350.7683,197.453347,350.2833,197.00800917,349.6794,197Z" fill="#3F3D56" fill-opacity="1"/></g></g></g></svg>