<svg xmlns="http://www.w3.org/2000/svg" width="584" height="468.599" viewBox="0 0 584 468.599" xmlns:xlink="http://www.w3.org/1999/xlink"><path d="M470.47004,450.91169c2.06592,.12937,3.20768-2.43737,1.64468-3.93333l-.1555-.61819c.02047-.04951,.04105-.09897,.06178-.14839,2.08924-4.9818,9.16992-4.94742,11.24139,.04177,1.83859,4.42817,4.17942,8.86389,4.75579,13.54594,.25838,2.0668,.14213,4.17236-.31648,6.20047,4.30807-9.41059,6.57515-19.68661,6.57515-30.02077,0-2.59652-.14213-5.19301-.43275-7.78295-.239-2.11854-.56839-4.2241-.99471-6.31034-2.30575-11.2772-7.29852-22.01825-14.50012-30.98962-3.46197-1.89248-6.34906-4.85065-8.09295-8.39652-.62649-1.27891-1.11739-2.65462-1.34991-4.05618,.39398,.05168,1.48556-5.94866,1.18841-6.3168,.54906-.83317,1.53178-1.24733,2.13144-2.06034,2.98232-4.04341,7.0912-3.33741,9.23621,2.15727,4.58224,2.31266,4.62659,6.14806,1.81495,9.83683-1.78878,2.34682-2.03456,5.52233-3.60408,8.03478,.16151,.20671,.32944,.40695,.4909,.61366,2.96106,3.79788,5.52208,7.88002,7.68104,12.16859-.61017-4.76621,.29067-10.50822,1.82641-14.20959,1.74819-4.21732,5.02491-7.76915,7.91045-11.41501,3.46601-4.37924,10.57337-2.46806,11.18401,3.08332,.00591,.05375,.01166,.10745,.01731,.1612-.4286,.24178-.84849,.49867-1.25864,.76992-2.33949,1.54723-1.53096,5.17386,1.24107,5.60174l.06277,.00967c-.15503,1.54366-.41984,3.07444-.80734,4.57937,3.70179,14.31579-4.29011,19.5299-15.70147,19.76412-.25191,.12916-.49738,.25832-.74929,.38109,1.15617,3.25525,2.07982,6.59447,2.76441,9.97891,.61359,2.99043,1.03991,6.01317,1.27885,9.04888,.29715,3.83006,.27129,7.67959-.05168,11.50323l.01939-.13562c.82024-4.21115,3.10671-8.14462,6.4266-10.87028,4.94561-4.06264,11.93282-5.55869,17.26826-8.82425,2.56833-1.57196,5.85945,.45945,5.41121,3.43708l-.02182,.14261c-.79443,.32289-1.56947,.69755-2.31871,1.11733-.4286,.24184-.84848,.49867-1.25864,.76992-2.33949,1.54729-1.53096,5.17392,1.24107,5.6018l.06282,.00965c.0452,.00646,.08397,.01295,.12911,.01944-1.36282,3.23581-3.26168,6.23922-5.63854,8.82922-2.31463,12.49713-12.25603,13.68282-22.89022,10.04354h-.00648c-1.16259,5.06378-2.86128,10.01127-5.0444,14.72621h-18.02019c-.06463-.20022-.12274-.40692-.18089-.60717,1.6664,.10341,3.34571,.00649,4.98629-.29702-1.33701-1.64059-2.67396-3.29409-4.01097-4.93462-.03229-.0323-.05816-.0646-.08397-.09689-.67817-.8396-1.36282-1.67283-2.04099-2.51246l-.00036-.00102c-.04245-2.57755,.26652-5.14662,.87876-7.63984l.00057-.00035Z" fill="#f2f2f2"/><path d="M514.61486,217.33542c-4.77997,30.21997-30.35999,71.70001-65.51996,111.70001h-190.07001l19.87-125.64001c46.35999,.20001,104.76001-14.07001,151.91998-20.78003,51.90002-7.37,90.16998-5.58997,83.79999,34.72003Z" fill="#e6e6e6"/><path d="M162.13488,329.03543H61.98486c-5.53998,0-10.03998-4.5-10.03998-10.04004v-58.62c2.22998-2.27997,4.46002-4.51001,6.65997-6.69,37.29004-36.83997,69.08002-58.21997,87.99005-22.04999,11.31995,21.66003,16.25995,57,15.53998,97.40002Z" fill="#e6e6e6"/><path d="M570.90991,0H13.09998C5.87988,0,0,5.86987,0,13.08997V199.8999c0,6.92017,5.40991,12.62012,12.21997,13.06006,.29004,.03003,.58008,.04004,.88,.04004H52.21997v-2H13.09998c-.29993,0-.58997-.01001-.88-.04004-5.70996-.44995-10.21997-5.23999-10.21997-11.06006V13.08997C2,6.96997,6.97998,2,13.09998,2H570.90991c6.12012,0,11.09009,4.96997,11.09009,11.08997V199.8999c0,6.12012-4.96997,11.1001-11.09009,11.1001h-44.68994v2h44.68994c7.21997,0,13.09009-5.88013,13.09009-13.1001V13.08997c0-7.22009-5.87012-13.08997-13.09009-13.08997Z" fill="#e6e6e6"/><g><ellipse cx="69.21187" cy="51.83324" rx="12.46328" ry="12.20069" fill="#12affa"/><path d="M169.12473,47.65933H102.03978c-2.30142,0-4.17392-1.87249-4.17392-4.17392s1.87249-4.17392,4.17392-4.17392h67.08496c2.30142,0,4.17392,1.87249,4.17392,4.17392s-1.87249,4.17392-4.17392,4.17392Z" fill="#f2f2f2"/><path d="M221.47806,61.78644H102.03978c-2.30142,0-4.17392-1.87249-4.17392-4.17392s1.87249-4.17392,4.17392-4.17392h119.43829c2.30142,0,4.17392,1.87249,4.17392,4.17392s-1.87249,4.17392-4.17392,4.17392Z" fill="#f2f2f2"/></g><path d="M394.30865,108.03543c-7.92041,0-14.36377-6.44336-14.36377-14.36377,0-7.91992,6.44336-14.36328,14.36377-14.36328,7.91992,0,14.36328,6.44336,14.36328,14.36328,0,7.92041-6.44336,14.36377-14.36328,14.36377Zm0-26.72705c-6.81738,0-12.36377,5.54639-12.36377,12.36328,0,6.81738,5.54639,12.36377,12.36377,12.36377,6.81689,0,12.36328-5.54639,12.36328-12.36377,0-6.81689-5.54639-12.36328-12.36328-12.36328Z" fill="#3f3d56"/><path d="M443.94488,108.03543c-7.92041,0-14.36377-6.44336-14.36377-14.36377,0-7.91992,6.44336-14.36328,14.36377-14.36328s14.36377,6.44336,14.36377,14.36328c0,7.92041-6.44336,14.36377-14.36377,14.36377Zm0-26.72705c-6.81738,0-12.36377,5.54639-12.36377,12.36328,0,6.81738,5.54639,12.36377,12.36377,12.36377s12.36377-5.54639,12.36377-12.36377c0-6.81689-5.54639-12.36328-12.36377-12.36328Z" fill="#3f3d56"/><circle cx="443.94488" cy="93.6718" r="7.63636" fill="#12affa"/><path d="M493.58111,108.03543c-7.91992,0-14.36328-6.44336-14.36328-14.36377,0-7.91992,6.44336-14.36328,14.36328-14.36328,7.92041,0,14.36377,6.44336,14.36377,14.36328,0,7.92041-6.44336,14.36377-14.36377,14.36377Zm0-26.72705c-6.81689,0-12.36328,5.54639-12.36328,12.36328,0,6.81738,5.54639,12.36377,12.36328,12.36377,6.81738,0,12.36377-5.54639,12.36377-12.36377,0-6.81689-5.54639-12.36328-12.36377-12.36328Z" fill="#3f3d56"/><path d="M457.42486,329.03543H200.15137c-7.04222-45.81639-30.26389-101.27465-44.25652-146.80808-15.39191-50.10593-19.61266-88.19192,21.20305-88.19192,43.62187,0,116.43718,38.17774,176.942,88.19192,55.38181,45.76281,100.45649,101.43519,103.38497,146.80808Z" fill="#f2f2f2"/><path d="M515.90484,330.03543H61.98492c-6.0874,0-11.04004-4.95215-11.04004-11.04004V147.07547c0-6.0874,4.95264-11.04004,11.04004-11.04004h453.91992c6.0874,0,11.04004,4.95264,11.04004,11.04004v171.91992c0,6.08789-4.95264,11.04004-11.04004,11.04004ZM61.98492,138.03543c-4.98486,0-9.04004,4.05518-9.04004,9.04004v171.91992c0,4.98438,4.05518,9.04004,9.04004,9.04004h453.91992c4.98486,0,9.04004-4.05566,9.04004-9.04004V147.07547c0-4.98486-4.05518-9.04004-9.04004-9.04004H61.98492Z" fill="#3f3d56"/><g><polygon points="410.16292 459.32804 417.95645 459.32727 421.66388 429.26616 410.16133 429.26695 410.16292 459.32804" fill="#ffb6b6"/><polygon points="381.98868 459.32804 389.78221 459.32727 393.48964 429.26616 381.98709 429.26695 381.98868 459.32804" fill="#ffb6b6"/><polygon points="365.51562 285.44668 376.07261 369.46776 381.82246 443.06578 395.11049 443.06578 401.94692 368.31779 400.79695 313.69426 408.84673 366.01785 407.28024 443.06578 422.0578 443.06578 434.72104 367.16782 433.66218 280.23808 365.51562 285.44668" fill="#2f2e41"/><path d="M409.9967,152.1236h-22.81828l-7.08091,9.62665-18.39951,8.55702,10.92471,66.85171-7.4748,49.73767s52.32359,16.04443,69.57316-3.74372c1.89136-2.49719,2.10699-5.30408-.72534-8.67424l-3.29958-39.45897,.57498-68.45615-17.82452-6.41776-3.44991-8.02221Z" fill="#12affa"/><g><path d="M348.7269,281.8667l4.76086-19.19633,11.3455,1.18968-5.75561,20.11646c.27509,.5768,.47219,1.2026,.57214,1.86735,.54361,3.61549-1.94667,6.98713-5.56216,7.53074-3.61549,.54361-6.98713-1.94667-7.53074-5.56216-.34668-2.30576,.54393-4.50864,2.17001-5.94573Z" fill="#ffb6b6"/><path d="M367.77754,168.73496l-8.43679,2.16563c-2.92571,.25049-7.87244,19.52793-5.46511,23.70503,0,0-3.71461,33.83737-1.68156,37.02482,2.03305,3.18745-2.40552,41.81491-2.40552,41.81491l15.35399,.08064,11.94211-74.2423-10.68096-22.10722c-.12112-3.7293,5.09151-8.75979,1.37384-8.4415Z" fill="#12affa"/></g><g><path d="M436.66605,105.24517l5.04569,18.08547,10.73361-1.44093-6.01496-18.93127c.24518-.55492,.41501-1.15419,.49158-1.78776,.41644-3.44587-2.03942-6.57692-5.4853-6.99335-3.44587-.41644-6.57692,2.03942-6.99335,5.4853-.26558,2.19759,.64014,4.26352,2.22273,5.58254Z" fill="#ffb6b6"/><path d="M414.24728,179.58739h0c1.13928,4.34082,5.38053,7.12004,9.81128,6.40654,6.94074-1.1177,16.62132-3.54438,21.14506-8.66747l13.75137-9.49066,4.18865-3.68723c2.29623-2.02135,3.13195-5.23625,2.11081-8.11996l-16.44749-46.44763-12.73904,3.84982,11.22671,33.27723,.65025,.32741c-5.93622,1.43536-15.32166,9.68533-18,14-5.66522-.65521-9.39709,3.56866-12.50659,9.36322-2.82959,2.13168-4.09036,5.76208-3.19101,9.18873Z" fill="#12affa"/></g><circle cx="398.45174" cy="129.88935" r="19.56272" fill="#ffb6b6"/><path d="M413.44488,117.6254c-.59003,2.84003,3.22998,6.45001,2.64001,9.28003-.39001,1.91998-.85004,3.94-2.31,5.38-1.36005,1.32996-3.39001,1.94-4.88,3.14996-2.01001,1.63-2.84003,4.33002-2.04999,6.65002,.52997,1.52997,1.69,3.14001,1.58997,4.62-.02002,.37-.12,.73999-.33997,1.09003-.90002,1.50995-3.18005,1.69-5.08002,1.69h-9.51001c-6.94-.01001-13-4.58002-15.03998-11.22003-.31-.98999-.63-1.91998-.97003-2.72998-1.37-3.26001-2.37-6.65002-2.96997-10.09003-.57001-3.20996,2.51996-4.78998,3.84998-7.82001,1.45001-3.32996,1.33002-7.67999,4.88-9.27997,3.54999-1.60999,7.31,.72998,11.22003,.08002l.14996-.03003c4.66998-.84003,9.70001-4.5,14.27002-3.39001,2.63,.64001,5.14996,1.98999,6.92999,3.82001-1.26001,.66003-2.60999,1.12-4,1.37,1.87-.02997,3.76001,.22003,5.57001,.73999,.47998,.87,.79999,1.82001,.90997,2.81,.17004,1.48004-4.12,2.27002-4.78998,3.67004-.03003,.07001-.06,.13995-.07001,.20996Z" fill="#2f2e41"/></g><path d="M490.70215,100.29218c-.27246,0-.54395-.11084-.74121-.32861-.37109-.40967-.33984-1.04199,.07031-1.4126l5.54883-5.02441-5.02344-5.54883c-.37109-.40918-.33887-1.0415,.07031-1.41211s1.04199-.33936,1.41211,.07031l5.69434,6.29004c.37109,.40918,.33984,1.0415-.07031,1.41211l-6.29004,5.69531c-.19141,.17334-.43164,.25879-.6709,.25879Z" fill="#3f3d56"/><path d="M397.29785,100.29218c-.23926,0-.47949-.08545-.6709-.25879l-6.29004-5.69531c-.41016-.37061-.44141-1.00293-.07031-1.41211l5.69434-6.29004c.37012-.40967,1.00293-.44092,1.41211-.07031s.44141,1.00293,.07031,1.41211l-5.02344,5.54883,5.54883,5.02441c.41016,.37061,.44141,1.00293,.07031,1.4126-.19727,.21777-.46875,.32861-.74121,.32861Z" fill="#3f3d56"/><path d="M437.79906,460.41494h0c-.07375,1.58563-1.92674,5.52634-3.44722,5.98213-4.56952,1.3698-26.3382,.77045-27.17086-2.2826-2.04373,1.8877-.0447-15.23915,2.49792-13.04479,5.20083,4.48843,8.83116,2.42633,9.54824-1.20714l.86342-2.19461,.16857,.24674c.52544,.76912-.78046-1.54119,.14937-1.59621,.10741-.00636,2.52909,4.88302,3.31153,5.4324l.06214,.10015c2.09413,3.37504,5.94378,5.24342,9.89093,4.80043h0c1.22315-.13727,2.49437,.26481,3.27722,1.21459,.57093,.69268,.89333,1.59022,.84874,2.54891Z" fill="#2f2e41"/><path d="M409.79906,460.41494h0c-.07375,1.58563-1.92674,5.52634-3.44722,5.98213-4.56952,1.3698-26.3382,.77045-27.17086-2.2826-2.04373,1.8877-.0447-15.23915,2.49792-13.04479,5.20083,4.48843,8.83116,2.42633,9.54824-1.20714l.86342-2.19461,.16857,.24674c.52544,.76912-.78046-1.54119,.14937-1.59621,.10741-.00636,2.52909,4.88302,3.31153,5.4324l.06214,.10015c2.09413,3.37504,5.94378,5.24342,9.89093,4.80043h0c1.22315-.13727,2.49437,.26481,3.27722,1.21459,.57093,.69268,.89333,1.59022,.84874,2.54891Z" fill="#2f2e41"/><path d="M278.14923,467.409c0,.66003,.53003,1.19,1.19006,1.19h253.28998c.65997,0,1.19-.52997,1.19-1.19,0-.65997-.53003-1.19-1.19-1.19h-253.28998c-.66003,0-1.19006,.53003-1.19006,1.19Z" fill="#ccc"/></svg>