<svg xmlns="http://www.w3.org/2000/svg" width="749" height="749" viewBox="0 0 749 749" fill="none">
<path d="M374.452 374.508L68.0127 197.585V551.432L374.452 728.354V374.508Z" fill="#50B1B2"/>
<path d="M374.452 374.508L68.0127 197.585V551.432L374.452 728.354V374.508Z" fill="url(#paint0_linear_1_33)" fill-opacity="0.2"/>
<path d="M68.0127 197.585L374.452 374.508L680.892 197.585L374.452 20.6621L68.0127 197.585Z" fill="url(#paint1_linear_1_33)"/>
<path d="M374.451 728.354L680.891 551.432V197.585L374.451 374.508V728.354Z" fill="#4690C3"/>
<path d="M374.451 728.354L680.891 551.432V197.585L374.451 374.508V728.354Z" fill="url(#paint2_linear_1_33)" fill-opacity="0.2"/>
<path d="M374.452 26.4356L675.891 200.472V548.546L374.452 722.581L73.0127 548.546V200.472L374.452 26.4356Z" stroke="black" stroke-opacity="0.3" stroke-width="10"/>
<path d="M297.74 281.391C297.74 389.562 181 407.77 181 518.083V564.137H351.29V510.586H239.905C239.37 507.909 239.37 505.231 239.37 502.554C239.37 440.971 356.645 397.059 356.645 279.249C356.645 219.272 326.657 185 268.823 185C210.988 185 181 219.272 181 279.249V315.663H236.692V275.5C236.692 248.725 248.473 238.55 267.216 238.55C285.959 238.55 297.74 247.654 297.74 281.391Z" fill="#FFF6E6"/>
<path d="M510.059 281.391C510.059 389.562 393.319 407.77 393.319 518.083V564.137H563.609V510.586H452.224C451.689 507.909 451.689 505.231 451.689 502.554C451.689 440.971 568.964 397.059 568.964 279.249C568.964 219.272 538.976 185 481.142 185C423.307 185 393.319 219.272 393.319 279.249V315.663H449.011V275.5C449.011 248.725 460.792 238.55 479.535 238.55C498.278 238.55 510.059 247.654 510.059 281.391Z" fill="#FFF6E6"/>
<path d="M176 564.137V569.137H181H351.29H356.29V564.137V510.586V505.586H351.29H244.402C244.372 504.644 244.37 503.644 244.37 502.554C244.37 488.79 250.915 475.58 261.69 461.255C269.01 451.523 277.896 441.743 287.489 431.186C292.115 426.094 296.906 420.821 301.765 415.285C331.295 381.643 361.645 340.034 361.645 279.249C361.645 248.49 353.956 223.543 338.108 206.255C322.194 188.894 298.741 180 268.823 180C238.905 180 215.452 188.894 199.538 206.255C183.69 223.543 176 248.49 176 279.249V315.663V320.663H181H236.692H241.692V315.663V275.5C241.692 262.733 244.515 254.926 248.646 250.325C252.68 245.831 258.731 243.55 267.216 243.55C275.811 243.55 281.67 245.615 285.63 250.477C289.817 255.618 292.74 264.893 292.74 281.391C292.74 333.265 265.012 363.536 235.778 395.453L235.683 395.557C206.541 427.372 176 460.797 176 518.083V564.137ZM388.319 564.137V569.137H393.319H563.609H568.609V564.137V510.586V505.586H563.609H456.72C456.691 504.644 456.689 503.644 456.689 502.554C456.689 488.79 463.234 475.58 474.009 461.255C481.329 451.523 490.215 441.743 499.807 431.186C504.434 426.094 509.225 420.821 514.084 415.285C543.614 381.643 573.964 340.034 573.964 279.249C573.964 248.49 566.275 223.543 550.427 206.255C534.513 188.894 511.06 180 481.142 180C451.223 180 427.77 188.894 411.857 206.255C396.008 223.543 388.319 248.49 388.319 279.249V315.663V320.663H393.319H449.011H454.011V315.663V275.5C454.011 262.733 456.834 254.926 460.965 250.325C464.999 245.831 471.05 243.55 479.535 243.55C488.129 243.55 493.989 245.615 497.948 250.477C502.136 255.618 505.059 264.893 505.059 281.391C505.059 333.265 477.331 363.536 448.097 395.453L448.002 395.557C418.86 427.372 388.319 460.797 388.319 518.083V564.137Z" stroke="#123036" stroke-opacity="0.5" stroke-width="10"/>
<defs>
<linearGradient id="paint0_linear_1_33" x1="221.232" y1="197.585" x2="221.232" y2="728.354" gradientUnits="userSpaceOnUse">
<stop stop-color="#4D9EB0"/>
<stop offset="0.479167" stop-color="#51C092"/>
<stop offset="1" stop-color="#BDFFDB"/>
</linearGradient>
<linearGradient id="paint1_linear_1_33" x1="-24.5825" y1="453.11" x2="78.8543" y2="-161.841" gradientUnits="userSpaceOnUse">
<stop stop-color="#4D4AED"/>
<stop offset="0.25" stop-color="#4CA3BF"/>
<stop offset="0.5" stop-color="#52CCC5"/>
<stop offset="0.75" stop-color="#2FED70"/>
<stop offset="1" stop-color="#15E7C1"/>
</linearGradient>
<linearGradient id="paint2_linear_1_33" x1="386" y1="387.499" x2="647.5" y2="648.999" gradientUnits="userSpaceOnUse">
<stop stop-color="#50C097"/>
<stop offset="0.479167" stop-color="#3A81CE"/>
<stop offset="1" stop-color="#BCFEDA"/>
</linearGradient>
</defs>
</svg>
